<?xml version="1.0" standalone="no"?>
<!DOCTYPE svg PUBLIC "-//W3C//DTD SVG 20010904//EN"
 "http://www.w3.org/TR/2001/REC-SVG-20010904/DTD/svg10.dtd">
<svg version="1.0" xmlns="http://www.w3.org/2000/svg"
 width="512.000000pt" height="512.000000pt" viewBox="0 0 512.000000 512.000000"
 preserveAspectRatio="xMidYMid meet">

<g transform="translate(0.000000,512.000000) scale(0.100000,-0.100000)"
fill="#000000" stroke="none">
<path d="M2290 4755 c-110 -31 -190 -99 -239 -204 -22 -47 -26 -70 -26 -146 0
-77 4 -98 27 -148 15 -31 49 -81 76 -110 49 -52 50 -54 172 -421 133 -399 145
-424 234 -483 59 -40 103 -53 182 -53 85 0 131 19 269 110 74 49 121 75 123
67 1 -7 -6 -41 -16 -74 -15 -49 -57 -113 -197 -308 -98 -136 -189 -253 -201
-262 -18 -11 -297 -36 -1251 -109 -675 -52 -1244 -99 -1264 -104 -54 -15 -114
-63 -146 -117 -23 -40 -28 -59 -28 -118 0 -102 47 -180 134 -224 56 -28 83
-30 449 -32 326 -2 344 -1 362 17 10 10 22 31 25 46 6 22 1 33 -23 58 -30 30
-31 30 -140 30 l-109 0 -11 39 c-15 50 -16 178 -1 187 14 8 1380 115 1429 112
l35 -3 7 -95 c4 -52 18 -132 31 -178 l24 -82 -507 6 -507 7 -22 -22 c-30 -30
-26 -87 9 -112 23 -17 78 -19 795 -29 423 -7 771 -13 773 -15 6 -6 -208 -719
-223 -742 -11 -16 -44 -31 -117 -53 -359 -109 -370 -114 -412 -198 -39 -78
-126 -369 -126 -420 1 -131 126 -236 257 -216 24 3 65 21 91 38 38 26 56 50
106 143 l60 111 131 48 c252 91 360 158 514 316 340 351 641 882 876 1547 89
252 195 619 195 677 0 73 -107 96 -138 29 -6 -12 -25 -76 -42 -141 -48 -179
-133 -446 -202 -631 l-61 -164 -81 79 c-91 89 -168 149 -271 212 -75 46 -280
149 -333 168 l-32 11 128 178 c71 99 136 198 146 222 21 55 76 289 76 328 0
46 -25 73 -68 73 -38 0 -157 -51 -212 -90 l-28 -20 -21 26 c-26 33 -44 91 -39
124 4 34 170 118 294 148 105 26 536 72 669 72 118 0 184 -17 388 -97 l169
-67 -6 -54 c-6 -53 -29 -112 -44 -112 -4 0 -69 25 -145 55 -75 30 -143 55
-151 55 -7 0 -25 -9 -40 -21 -35 -27 -37 -90 -3 -115 12 -9 137 -62 277 -118
l255 -102 32 -123 c18 -71 42 -139 57 -162 82 -123 268 -139 367 -32 76 81 83
150 35 342 -20 79 -48 166 -63 194 -30 61 -122 160 -178 192 -67 39 -685 282
-761 299 -40 8 -110 19 -157 22 l-85 7 22 46 c17 37 21 65 21 146 0 95 -2 103
-34 163 -69 127 -182 195 -321 195 -99 0 -172 -28 -245 -94 -76 -70 -108 -138
-113 -244 -5 -95 12 -160 59 -224 16 -23 29 -44 29 -48 0 -5 -32 -16 -71 -26
-103 -25 -211 -71 -307 -128 -46 -28 -86 -48 -89 -45 -4 3 -39 90 -79 193
l-74 187 24 30 c85 112 103 255 47 381 -30 67 -111 148 -181 179 -75 34 -165
41 -240 21z m211 -180 c63 -44 91 -105 87 -182 -12 -204 -271 -271 -382 -100
-51 79 -43 177 20 246 51 57 87 72 166 69 55 -3 75 -9 109 -33z m1103 -165
c43 -16 104 -79 122 -126 67 -174 -132 -344 -296 -253 -149 82 -140 308 15
375 35 16 123 18 159 4z m-1044 -482 c29 -73 70 -179 92 -235 41 -108 62 -133
110 -133 19 0 28 -5 28 -17 0 -9 16 -45 35 -79 l34 -64 -44 -26 c-55 -32 -111
-40 -158 -25 -70 23 -87 56 -192 373 -54 161 -100 299 -103 306 -3 8 8 12 34
13 22 1 50 5 64 9 14 4 30 8 37 9 6 1 35 -59 63 -131z m2122 -325 c88 -37 151
-85 188 -142 36 -56 103 -302 93 -342 -16 -64 -85 -89 -135 -49 -21 16 -32 45
-58 152 -30 120 -36 136 -69 168 -20 19 -61 43 -90 54 -46 16 -52 21 -46 40 3
11 13 49 22 84 9 34 19 62 24 62 4 0 36 -12 71 -27z m-1677 -994 c142 -63 296
-156 404 -245 85 -71 181 -177 181 -202 0 -18 -117 -261 -185 -383 -59 -105
-174 -289 -181 -289 -2 0 -32 23 -66 51 -68 54 -201 124 -259 134 -66 12 -66
7 -10 195 28 95 51 184 51 198 0 14 -10 36 -22 49 -20 21 -30 23 -122 23 -56
0 -171 3 -257 7 l-157 6 -25 76 c-31 90 -47 175 -47 248 l0 53 38 0 c20 1 110
7 199 14 180 15 230 31 280 91 33 39 29 40 178 -26z m-2479 -291 c0 -40 4 -90
8 -112 l7 -38 -163 7 c-90 4 -171 12 -181 17 -25 13 -49 72 -41 102 3 13 17
34 30 47 21 20 42 25 157 35 208 18 184 26 183 -58z m2355 -798 c99 -30 239
-129 239 -168 0 -29 -217 -273 -300 -337 -79 -61 -167 -107 -294 -154 -60 -23
-112 -41 -116 -41 -7 0 -33 190 -27 197 2 2 40 14 85 27 44 13 101 35 126 50
75 44 86 68 176 374 12 43 26 72 34 72 8 0 42 -9 77 -20z m-647 -587 c3 -21
10 -75 16 -121 l11 -84 -47 -91 c-26 -51 -54 -100 -62 -109 -33 -39 -122 -9
-122 40 0 10 25 96 55 191 51 157 59 174 88 191 45 28 54 25 61 -17z"/>
</g>
</svg>
