<?xml version="1.0" standalone="no"?>
<!DOCTYPE svg PUBLIC "-//W3C//DTD SVG 20010904//EN"
 "http://www.w3.org/TR/2001/REC-SVG-20010904/DTD/svg10.dtd">
<svg version="1.0" xmlns="http://www.w3.org/2000/svg"
 width="512.000000pt" height="512.000000pt" viewBox="0 0 512.000000 512.000000"
 preserveAspectRatio="xMidYMid meet">

<g transform="translate(0.000000,512.000000) scale(0.100000,-0.100000)"
fill="#000000" stroke="none">
<path d="M1535 4780 c-857 -286 -1006 -339 -985 -347 14 -6 206 -70 428 -144
l402 -134 0 -632 0 -633 39 -24 c104 -66 303 -128 527 -165 204 -34 350 -44
619 -44 380 0 668 36 913 114 89 29 220 87 250 111 9 8 12 149 12 642 l1 631
212 69 c117 38 218 71 225 73 9 4 12 -70 12 -349 l0 -354 -33 -12 c-51 -18
-113 -77 -141 -134 -26 -51 -26 -55 -26 -275 l0 -223 273 2 272 3 0 215 c0
158 -4 225 -14 254 -18 51 -90 128 -141 151 l-40 18 0 381 0 381 125 39 c69
22 125 42 125 45 0 9 -769 263 -778 257 -15 -9 -46 -126 -36 -135 5 -5 82 -33
172 -62 89 -29 162 -56 162 -59 0 -3 -349 -121 -775 -263 l-775 -259 -775 259
c-426 142 -775 260 -775 263 0 3 349 121 775 263 l775 259 517 -173 c284 -94
523 -172 531 -173 20 -1 67 133 49 140 -65 24 -1094 364 -1102 363 -5 0 -464
-153 -1020 -339z m520 -850 l509 -170 501 167 c275 91 506 168 513 171 10 3
12 -56 10 -289 l-3 -294 -92 -3 -93 -3 0 -74 0 -75 95 0 96 0 -3 -72 -3 -73
-162 -3 -163 -2 0 -75 0 -75 165 0 165 0 0 -44 0 -44 -78 -30 c-323 -123 -880
-170 -1372 -116 -223 25 -391 62 -552 124 l-58 21 0 565 c0 310 3 564 8 564 4
0 236 -76 517 -170z m2284 -506 c42 -35 53 -80 49 -209 l-3 -110 -122 -3 -123
-3 0 131 c0 97 4 139 15 160 32 63 129 81 184 34z"/>
<path d="M2960 3135 l0 -75 75 0 75 0 0 75 0 75 -75 0 -75 0 0 -75z"/>
<path d="M918 2434 c-182 -44 -340 -190 -405 -374 -21 -61 -26 -94 -26 -175
-1 -152 44 -279 137 -382 l46 -51 -66 -11 c-149 -26 -280 -96 -389 -206 -258
-261 -284 -658 -60 -953 84 -112 216 -202 370 -254 l70 -23 2263 -3 2262 -2 0
225 0 225 -80 0 -80 0 0 275 0 275 80 0 80 0 0 225 0 225 -240 0 -240 0 0 150
0 150 -80 0 -80 0 0 125 0 125 80 0 80 0 0 225 0 225 -600 0 -600 0 0 -75 0
-75 525 0 525 0 0 -75 0 -75 -1555 0 -1555 0 0 -75 0 -75 1475 0 1475 0 0
-125 0 -125 -1646 0 c-1482 0 -1649 2 -1679 16 -88 41 -95 164 -13 214 27 17
50 20 136 20 l102 0 0 76 0 76 -127 -4 c-146 -4 -183 -17 -246 -87 -122 -135
-88 -334 73 -425 l55 -31 1753 -3 1752 -2 0 -75 0 -75 -1295 0 -1295 0 0 -75
0 -75 1535 0 1535 0 0 -75 0 -75 -2172 -2 -2173 -3 -68 -32 c-269 -128 -338
-464 -138 -676 28 -30 73 -66 99 -80 111 -60 0 -57 1954 -57 l1788 0 0 75 0
75 -1803 2 -1802 3 -45 24 c-103 54 -154 135 -154 246 0 87 28 149 91 204 87
77 -101 71 2200 71 l2063 0 0 -125 0 -125 -1665 0 -1665 0 0 -75 0 -75 1665 0
1665 0 0 -75 0 -75 -200 0 -201 0 3 -72 3 -73 278 -3 277 -2 0 -75 0 -75
-2147 0 c-1802 0 -2159 3 -2214 14 -164 35 -317 153 -389 300 -52 105 -74 207
-65 306 19 228 168 420 388 501 62 23 65 23 635 27 l572 3 0 74 0 75 -359 0
c-200 0 -382 4 -412 10 -219 41 -378 266 -340 481 28 162 141 293 294 341 55
17 124 18 1208 18 l1149 0 0 75 0 75 -1157 -1 c-951 -1 -1168 -3 -1215 -15z"/>
<path d="M880 675 l0 -75 75 0 75 0 0 75 0 75 -75 0 -75 0 0 -75z"/>
<path d="M1180 675 l0 -75 75 0 75 0 0 75 0 75 -75 0 -75 0 0 -75z"/>
</g>
</svg>
